<svg width="48" height="48" viewBox="0 0 48 48" fill="none" xmlns="http://www.w3.org/2000/svg">
<rect x="7.43311" y="9.26733" width="38.5662" height="36.7275" fill="black" stroke="black" stroke-width="3" stroke-linejoin="round"/>
<rect x="3.77905" y="5.66504" width="38.5662" height="36.7275" fill="#DD7DFF" stroke="black" stroke-width="3" stroke-linejoin="round"/>
<path d="M23 22C22.0942 20.2383 19.6283 16.9558 17.335 15.3375C15.1383 13.7866 14.3008 14.055 13.7517 14.3041C13.1158 14.59 13 15.5666 13 16.14C13 16.715 13.315 20.8483 13.52 21.5391C14.1992 23.8191 16.6142 24.5891 18.8392 24.3425C18.9525 24.3258 19.0683 24.31 19.185 24.2958C19.07 24.3141 18.955 24.3291 18.8392 24.3425C15.5792 24.8258 12.6833 26.0133 16.4808 30.2408C20.6583 34.5658 22.2058 29.3133 23 26.6508C23.7942 29.3133 24.7083 34.3766 29.4442 30.2408C33 26.6508 30.4208 24.8258 27.1608 24.3425C27.0452 24.3297 26.9299 24.3141 26.815 24.2958C26.9317 24.31 27.0475 24.3258 27.1608 24.3425C29.3858 24.59 31.8008 23.8191 32.48 21.5391C32.685 20.8491 33 16.7141 33 16.1408C33 15.5658 32.8842 14.59 32.2483 14.3025C31.6992 14.0541 30.8617 13.7858 28.665 15.3358C26.3717 16.9566 23.9058 20.2391 23 22Z" fill="black"/>
<path d="M33.5 35L33.5 28" stroke="black"/>
<path d="M37 31.5H30" stroke="black"/>
</svg>
